<svg xmlns="http://www.w3.org/2000/svg" style="display: none;"><symbol id="loupe" viewBox="0 0 512.005 512.005"><title>loupe</title><path d="M505.749,475.587l-145.6-145.6c28.203-34.837,45.184-79.104,45.184-127.317c0-111.744-90.923-202.667-202.667-202.667 S0,90.925,0,202.669s90.923,202.667,202.667,202.667c48.213,0,92.48-16.981,127.317-45.184l145.6,145.6 c4.16,4.16,9.621,6.251,15.083,6.251s10.923-2.091,15.083-6.251C514.091,497.411,514.091,483.928,505.749,475.587z M202.667,362.669c-88.235,0-160-71.765-160-160s71.765-160,160-160s160,71.765,160,160S290.901,362.669,202.667,362.669z"/></symbol><symbol id="plus" viewBox="0 0 469.33333 469.33333"><title>plus</title><path d="m437.332031 192h-160v-160c0-17.664062-14.335937-32-32-32h-21.332031c-17.664062 0-32 14.335938-32 32v160h-160c-17.664062 0-32 14.335938-32 32v21.332031c0 17.664063 14.335938 32 32 32h160v160c0 17.664063 14.335938 32 32 32h21.332031c17.664063 0 32-14.335937 32-32v-160h160c17.664063 0 32-14.335937 32-32v-21.332031c0-17.664062-14.335937-32-32-32zm0 0"/></symbol><symbol id="bell" viewBox="0 0 24 24"><title>bell</title><path d="m21.379 16.913c-1.512-1.278-2.379-3.146-2.379-5.125v-2.788c0-3.519-2.614-6.432-6-6.92v-1.08c0-.553-.448-1-1-1s-1 .447-1 1v1.08c-3.387.488-6 3.401-6 6.92v2.788c0 1.979-.867 3.847-2.388 5.133-.389.333-.612.817-.612 1.329 0 .965.785 1.75 1.75 1.75h16.5c.965 0 1.75-.785 1.75-1.75 0-.512-.223-.996-.621-1.337z" /><path d="m12 24c1.811 0 3.326-1.291 3.674-3h-7.348c.348 1.709 1.863 3 3.674 3z" /></symbol><symbol id="arrow-down-sign-to-navigate" viewBox="0 0 451.847 451.847"><title>arrow-down-sign-to-navigate</title><path d="M225.923,354.706c-8.098,0-16.195-3.092-22.369-9.263L9.27,151.157c-12.359-12.359-12.359-32.397,0-44.751 c12.354-12.354,32.388-12.354,44.748,0l171.905,171.915l171.906-171.909c12.359-12.354,32.391-12.354,44.744,0 c12.365,12.354,12.365,32.392,0,44.751L248.292,345.449C242.115,351.621,234.018,354.706,225.923,354.706z" /></symbol></svg>